<?xml version="1.0" encoding="utf-8"?>
<!-- Generator: Adobe Illustrator 12.0.0, SVG Export Plug-In . SVG Version: 6.00 Build 51448)  -->
<!DOCTYPE svg PUBLIC "-//W3C//DTD SVG 1.1 Basic//EN" "http://www.w3.org/Graphics/SVG/1.1/DTD/svg11-basic.dtd" [
	<!ENTITY ns_svg "http://www.w3.org/2000/svg">
	<!ENTITY ns_xlink "http://www.w3.org/1999/xlink">
]>
<svg  version="1.1" baseProfile="basic" id="Layer_1" xmlns="&ns_svg;" xmlns:xlink="&ns_xlink;" width="1032.42" height="241.97"
	 viewBox="0 0 1032.42 241.97" overflow="visible" enable-background="new 0 0 1032.42 241.97" xml:space="preserve">
<g>
	<path fill="#4C2F8D" d="M222.751,231.954c-11.941,0-22.476-4.671-31.604-14.023c-9.133-9.352-19.89-27.278-32.273-53.79
		l-25.923-56.563l51.714-51.785c15.857-15.823,28.352-26.226,37.485-31.211c9.128-4.978,18.682-7.627,28.662-7.937l1.47-7.551
		h-2.808c-4.006,0-8.484,0.308-13.428,0.925c-4.944,0.615-10.669,1.594-17.17,2.927c-2.405-1.233-4.504-2.129-6.282-2.695
		c-1.785-0.564-3.433-0.85-4.944-0.85c-2.766,0-5.525,0.85-8.286,2.542c-2.764,1.697-6.194,4.858-10.291,9.48L98.74,121.45
		c3.03,6.37,7.351,15.515,12.964,27.432c15.942,33.909,27.661,56.311,35.144,67.197c6.323,9.148,13.34,15.748,21.047,19.805
		c7.705,4.056,17.305,6.087,28.799,6.087c4.543,0,9.241-0.228,14.097-0.69c4.851-0.467,9.822-1.155,14.9-2.083l1.604-7.549
		c-0.537,0-1.294,0.054-2.273,0.146C224.041,231.905,223.286,231.954,222.751,231.954z"/>
	<path fill="#4C2F8D" d="M71.628,208.838c0-4.209,0.686-10.794,2.07-19.732c1.377-8.936,3.896-23.164,7.549-42.688l8.152-44.543
		c0.623-3.083,1.47-7.498,2.542-13.254c8.457-46.646,21.421-70.635,38.884-71.975l1.604-7.551
		c-5.972,0.415-12.673,1.184-20.11,2.312c-7.444,1.13-15.881,2.673-25.325,4.624c-8.999-1.951-17.017-3.494-24.053-4.624
		c-7.041-1.128-13.723-1.897-20.044-2.312l-1.606,7.551c7.927,1.133,13.43,3.345,16.506,6.628c3.074,3.289,4.609,8.582,4.609,15.874
		c0,4.006-0.693,10.508-2.073,19.497c-1.382,8.992-3.899,23.403-7.549,43.23l-8.152,44.543c-0.535,2.773-1.294,6.78-2.271,12.019
		c-8.733,47.778-22.41,72.182-41.025,73.21L0,239.197c6.594-0.308,13.74-1.028,21.448-2.155c7.705-1.129,16.145-2.721,25.325-4.778
		c8.64,2.058,16.589,3.649,23.853,4.778c7.256,1.127,14.053,1.848,20.378,2.155l1.47-7.549c-7.842-1.128-13.276-3.34-16.304-6.634
		C73.137,221.733,71.628,216.34,71.628,208.838z"/>
	<path fill="#4C2F8D" d="M404.258,15.62c1.738-3.491,3.276-7.19,4.611-11.096l-8.552-1.697c-0.981,1.956-2.202,3.445-3.674,4.47
		c-1.472,1.03-3.052,1.541-4.744,1.541c-1.519,0-7.061-0.896-16.638-2.695s-18.374-2.698-26.389-2.698
		c-23.967,0-43.054,6.165-57.263,18.494s-21.311,28.718-21.311,49.165c0,12.844,3.047,23.84,9.15,32.981
		c6.101,9.146,19.756,20.552,40.959,34.216c13.718,8.738,22.673,16.287,26.86,22.654c4.18,6.375,6.282,14.08,6.282,23.12
		c0,12.947-4.211,23.709-12.632,32.29c-8.416,8.581-19.084,12.868-32.002,12.868c-14.165,0-25.234-4.523-33.208-13.564
		c-7.976-9.04-11.96-21.577-11.96-37.604c0-2.776,0.042-5.059,0.134-6.858c0.088-1.797,0.22-3.623,0.4-5.474h-9.219
		c-1.428,5.859-2.473,12.075-3.142,18.65c-0.669,6.577-1.003,13.716-1.003,21.423v4.471c-2.939,4.52-5.322,8.862-7.148,13.025
		c-1.829,4.16-3.186,8.352-4.075,12.559l7.886,1.545c1.067-2.473,2.336-4.346,3.809-5.633c1.47-1.273,3.047-1.924,4.741-1.924
		c0.71,0,6.904,1.846,18.577,5.547c11.667,3.699,23.159,5.547,34.478,5.547c23.689,0,43.066-6.828,58.125-20.495
		c15.056-13.662,22.585-31.025,22.585-52.092c0-12.639-3.052-23.582-9.155-32.83c-6.104-9.246-16.995-18.85-32.668-28.818
		c-0.361-0.203-0.85-0.513-1.472-0.925c-27.261-17.363-40.891-33.906-40.891-49.629c0-11.914,3.894-21.777,11.689-29.59
		c7.798-7.808,17.842-11.714,30.137-11.714c11.848,0,21.001,3.652,27.461,10.942c6.455,7.297,9.688,17.571,9.688,30.825
		c0,1.848-0.027,3.289-0.066,4.316c-0.046,1.028-0.393,2.229-0.393,2.947h8.684c1.606-6.782,3.152-13.66,4.001-19.978
		c0.843-6.318,1.36-12.507,1.538-18.572C400.588,22.351,402.524,19.116,404.258,15.62z"/>
	<path fill="#4C2F8D" d="M882.427,9.209c0.403,0.029,0.874,0.066,1.292,0.098c0.609-2.788,1.135-5.872,1.56-9.307h-7.61
		c-0.449,3.289-2.302,5.627-5.547,7.014c-3.254,1.387-9.689,2.08-19.309,2.08H794.68h-38.215c-19.338,0-31.563-0.513-36.685-1.543
		c-5.122-1.025-7.688-3.237-7.688-6.626V0h-7.609c-0.449,3.906-0.764,7.119-0.936,9.631c-0.186,2.52-0.271,4.548-0.271,6.089
		c0,1.543,0.024,2.83,0.071,3.855c0.039,1.028,0.1,2.109,0.199,3.237c-3.477,7.81-6.527,15.181-9.154,22.114
		c-2.635,6.936-4.744,13.284-6.354,19.033h8.424c5.518-16.643,11.999-27.842,19.438-33.599c7.441-5.75,19.935-8.63,37.49-8.63
		h17.236c-1.699,15.52-5.261,37.866-10.693,67.043c-1.066,5.857-1.869,10.225-2.402,13.101l-8.283,44.541
		c-4.904,27.024-8.537,44.849-10.894,53.479c-2.363,8.631-4.922,15-7.681,19.111c-2.41,3.599-5.91,6.372-10.49,8.322
		c-2.513,1.074-5.572,1.949-9.134,2.646c-11.497-6.276-20.476-34.279-26.934-84.021c-1.431-11.099-2.588-19.775-3.477-26.047
		L665.008,6.321h-23.255L580.281,119.29c-3.563,6.475-8.506,15.566-14.827,27.28c-26.263,49.131-40.804,76.89-56.286,83.311
		c-4.736-1.094-8.252-2.666-10.555-4.707c-3.691-3.284-5.539-8.833-5.539-16.647c0-3.389,0.642-9.295,1.94-17.72
		c1.289-8.425,3.848-23.223,7.679-44.39l8.151-44.541c2.852-15.615,5.547-29.771,8.089-42.461
		c2.533-12.686,5.139-25.247,7.813-37.683h17.236c17.106,1.648,28.418,4.729,33.949,9.248c5.518,4.524,8.284,12.175,8.284,22.964
		c0,1.438,0.039,3.237,0.132,5.396c0.083,2.158,0.129,3.699,0.129,4.624h8.152c0.271-4.211,0.471-7.678,0.604-10.403
		c0.139-2.722,0.199-4.495,0.199-5.317c0-3.701-0.061-7.603-0.199-11.714c-0.133-4.109-0.332-8.479-0.604-13.101
		c1.691-3.286,3.052-6.753,4.08-10.403c1.02-3.647,1.846-7.986,2.473-13.025h-7.619c-0.447,3.289-2.295,5.627-5.547,7.014
		s-9.688,2.08-19.307,2.08h-58.128h-38.22c-19.342,0-31.563-0.51-36.686-1.543c-5.121-1.025-7.683-3.235-7.683-6.626V0h-7.617
		c-0.444,3.906-0.757,7.119-0.935,9.631c-0.179,2.522-0.264,4.548-0.264,6.089c0,1.543,0.014,2.83,0.061,3.855
		c0.047,1.03,0.112,2.109,0.203,3.237c-3.475,7.81-12.842,15.181-15.469,22.114c-2.627,6.936-4.744,13.284-6.344,19.036h14.729
		c5.521-16.646,12.005-27.844,19.443-33.601c7.444-5.75,19.937-8.63,37.483-8.63h17.246c-1.702,15.52-5.262,37.866-10.693,67.043
		c-1.074,5.857-1.871,10.225-2.412,13.101l-8.281,44.541c-4.9,27.024-8.531,44.849-10.887,53.479c-2.373,8.631-4.93,15-7.688,19.111
		c-2.402,3.599-5.904,6.372-10.491,8.322c-4.59,1.956-10.938,3.291-19.043,4.012l-1.335,7.856
		c7.656-0.101,15.854-0.742,24.587-1.924c8.73-1.182,18.04-2.852,27.93-5.01c8.555,2.058,16.907,3.647,25.056,4.778
		c2.203,0.303,4.404,0.57,6.607,0.82c0,0,2.689,0.114,5.85-0.11c3.686-0.261,4.079-0.532,4.079-0.532
		c5.771-1.001,13.938-2.627,20.63-4.341c5.522,1.745,11.157,3.159,16.904,4.235c5.75,1.082,11.558,1.775,17.439,2.083l1.738-7.856
		c-5.439-0.518-9.488-1.57-12.161-3.162s-4.011-3.822-4.011-6.706c0-4.106,1.895-10.786,5.678-20.034
		c3.787-9.25,9.373-20.854,16.775-34.832l8.013-15.105c5.347-0.1,10.647-0.178,15.908-0.232c5.254-0.049,11.442-0.078,18.574-0.078
		c5.608,0,10.979,0.029,16.101,0.078c5.123,0.054,10.4,0.132,15.83,0.232l2.273,17.571c0.896,7.297,1.561,14.207,2.01,20.728
		c0.439,6.531,0.664,12.156,0.664,16.875c0,9.049-1.561,15.215-4.676,18.499c-3.12,3.288-9.309,5.345-18.574,6.167l-1.606,7.856
		c6.683-0.103,13.767-0.742,21.247-1.924c7.488-1.182,15.369-2.852,23.658-5.01c8.461,2.263,16.257,3.96,23.381,5.088
		c1.489,0.234,2.951,0.433,4.404,0.622c0,0,5.529,1.055,8.498,0.869c2.518,0.186,7.596-0.617,7.596-0.617
		c2.71-0.264,5.461-0.568,8.289-0.952c8.723-1.182,18.034-2.852,27.924-5.01c8.553,2.058,16.904,3.647,25.057,4.778
		c8.152,1.127,16.279,1.848,24.393,2.155l1.467-7.856c-9.982-0.822-16.821-2.879-20.513-6.167c-3.701-3.284-5.55-8.833-5.55-16.647
		c0-3.389,0.643-9.295,1.941-17.725c1.289-8.423,3.848-23.218,7.688-44.385l8.143-44.541c2.852-15.615,5.549-29.771,8.091-42.461
		c2.542-12.686,5.144-25.247,7.817-37.683h17.238c17.107,1.646,28.418,4.729,33.941,9.248c5.518,4.524,8.283,12.175,8.283,22.964
		c0,1.438,0.039,3.235,0.139,5.393c0.086,2.158,0.133,3.699,0.133,4.624h8.151c0.261-4.209,0.462-7.676,0.601-10.403
		c0.132-2.72,0.195-4.492,0.195-5.315c0-3.701-0.063-7.603-0.195-11.716c-0.139-4.106-0.34-8.477-0.601-13.098
		c1.025-2.004,1.899-4.102,2.681-6.245c-0.278-0.022-0.557-0.059-0.835-0.078L882.427,9.209z M635.207,138.479
		c-3.926,0.051-9.758,0.078-17.507,0.078c-8.021,0-14.124-0.027-18.311-0.078c-4.189-0.049-8.105-0.127-11.753-0.232
		c7.031-14.075,14.473-28.484,22.314-43.23c7.834-14.744,16.17-30.132,24.985-46.16c2.142,17.161,4.45,35.654,6.946,55.483
		c2.497,19.832,3.926,31.084,4.281,33.752C642.771,138.301,639.126,138.43,635.207,138.479z"/>
	<path fill="#4C2F8D" d="M1026.701,10.789c-2.402-1.128-8.197-1.694-17.367-1.694c-18.353,0-34.261,0.566-47.711,1.694
		c-13.451,1.133-25.119,2.881-35.01,5.242c-6.859-1.851-13.791-3.34-20.775-4.47c-6.598-1.064-15.113-1.748-22.119-2.253
		c-0.286,1.299-0.582,2.556-0.914,3.718c-0.393,1.421-0.889,2.793-1.389,4.158c7.928,0.681,15.916,2.588,19.277,6.013
		c3.469,3.545,5.207,9.17,5.207,16.877c0,3.904-0.71,10.481-2.141,19.727c-1.421,9.246-3.916,23.271-7.479,42.075l-8.151,44.541
		c-0.625,2.981-1.431,7.244-2.402,12.793c-8.74,47.465-22.282,71.508-40.625,72.131l-1.338,7.856
		c5.972-0.308,12.456-1.028,19.44-2.155c6.992-1.131,14.811-2.721,23.457-4.778c8.545,2.36,17.986,4.06,28.323,5.088
		c10.332,1.028,23.521,1.538,39.561,1.538h17.771c14.068,0,23.115-0.721,27.127-2.156c4.009-1.438,6.011-4.111,6.011-8.02
		c0-1.125-0.179-2.385-0.532-3.771c-0.356-1.39-0.898-2.952-1.6-4.703c2.936-5.238,5.516-10.791,7.75-16.647
		c2.224-5.854,4.18-12.173,5.879-18.953h-8.955c-4.459,14.18-10.872,23.865-19.246,29.053c-8.377,5.189-24.585,7.78-48.638,7.78
		c-8.823,0-15.013-1.284-18.574-3.853c-3.569-2.568-5.347-6.934-5.347-13.101c0-3.081,0.311-7.015,0.936-11.79
		c0.625-4.778,1.514-10.249,2.673-16.416l9.087-48.237h24.585c14.609,0,23.657,1.155,27.126,3.467
		c3.477,2.312,5.215,6.655,5.215,13.022v5.549h8.152c0.532-3.391,0.936-6.599,1.206-9.634c0.261-3.027,0.394-5.779,0.394-8.245
		c0-0.718-0.062-2.358-0.193-4.932c-0.139-2.568-0.246-4.724-0.34-6.472c2.139-4.209,4.01-8.708,5.618-13.486
		c1.599-4.778,3.027-10.044,4.272-15.798h-8.152c-1.869,8.015-5.3,13.54-10.293,16.567c-4.99,3.035-14.609,4.548-28.864,4.548
		h-25.784l6.546-36.064c1.159-6.06,2.448-12.585,3.88-19.573c1.42-6.985,3.607-17.363,6.543-31.133
		c5.254-0.308,9.372-0.51,12.363-0.618c2.98-0.1,5.811-0.154,8.483-0.154c20.042,0,32.534,1.826,37.48,5.471
		c4.944,3.652,7.417,10.664,7.417,21.038c0,1.338-0.024,2.751-0.063,4.238c-0.046,1.492-0.114,3.159-0.2,5.007h7.881
		c0.981-5.547,1.738-11.143,2.271-16.797c0.534-5.649,0.889-11.453,1.074-17.417c1.692-1.848,2.913-3.516,3.672-5.007
		c0.757-1.489,1.136-3.054,1.136-4.702C1030.311,13.977,1029.111,11.921,1026.701,10.789z"/>
	<ellipse fill="#4C2F8D" cx="217.903" cy="123.685" rx="21.78" ry="37.677"/>
</g>
</svg>
